<svg width="207" height="154" fill="none" xmlns="http://www.w3.org/2000/svg"><path d="M206.385 134.756H.617v.103h205.768v-.103zM185.765 141.379h-6.132v.103h6.132v-.103zM136.925 142.496h-3.577v.103h3.577v-.103zM177.895 137.559h-14.071v.103h14.071v-.103zM45.732 139.684H27.957v.103h17.775v-.103zM55.809 139.684h-6.41v.103h6.41v-.103zM105.457 138.301h-38.55v.103h38.55v-.103zM98.157 116.402H18.689a2.355 2.355 0 0 1-2.35-2.35V2.348A2.352 2.352 0 0 1 18.69 0h79.468a2.352 2.352 0 0 1 2.348 2.348v111.703a2.353 2.353 0 0 1-2.348 2.351zM18.69.103a2.249 2.249 0 0 0-2.242 2.242v111.706a2.247 2.247 0 0 0 2.242 2.242h79.468a2.25 2.25 0 0 0 2.242-2.242V2.348A2.25 2.25 0 0 0 98.158.106L18.69.103zM187.172 116.402h-79.468a2.353 2.353 0 0 1-2.349-2.35V2.348A2.354 2.354 0 0 1 107.704 0h79.468a2.354 2.354 0 0 1 2.349 2.348v111.703a2.352 2.352 0 0 1-2.349 2.351zM107.704.103a2.25 2.25 0 0 0-2.242 2.242v111.706a2.249 2.249 0 0 0 2.242 2.242h79.468a2.252 2.252 0 0 0 2.246-2.242V2.348a2.25 2.25 0 0 0-2.246-2.242L107.704.103z" fill="#EBEBEB"/><path d="M88.883 134.754h7.664V82.131h-7.664v52.623z" fill="#E6E6E6"/><path d="M91.58 134.756h-2.697v-9.998h5.526l-2.828 9.998z" fill="#F0F0F0"/><path d="M169.922 134.754h7.664V82.131h-7.664v52.623z" fill="#E6E6E6"/><path d="M88.883 132.025h83.394V82.132H88.883v49.893z" fill="#F0F0F0"/><path d="M169.586 134.756h2.697v-9.998h-5.529l2.832 9.998z" fill="#F0F0F0"/><path d="M144.785 86.26v41.273h24.722V86.26h-24.722z" fill="#E6E6E6"/><path d="M154.702 87.712h4.891a8.305 8.305 0 0 0 5.617-2.11h-16.124a8.302 8.302 0 0 0 5.616 2.11z" fill="#F0F0F0"/><path d="M118.219 86.26v41.273h24.721V86.26h-24.721z" fill="#E6E6E6"/><path d="M127.886 87.712h4.891a8.302 8.302 0 0 0 5.616-2.11H122.27a8.3 8.3 0 0 0 5.616 2.11z" fill="#F0F0F0"/><path d="M91.656 86.26v41.273h24.722V86.26H91.656z" fill="#E6E6E6"/><path d="M101.324 87.712h4.891a8.3 8.3 0 0 0 5.616-2.11H95.707a8.304 8.304 0 0 0 5.617 2.11zM29.418 134.754h52.289V17.211h-52.29v117.543z" fill="#F0F0F0"/><path d="M29.42 134.754h51.186V17.211H29.42v117.543z" fill="#F5F5F5"/><path d="M77.484 132.087V19.879H32.537v112.208h44.947z" fill="#F0F0F0"/><path d="M73.067 40.748a12.254 12.254 0 0 0-12.254-12.254H49.207a12.254 12.254 0 0 0-12.254 12.254h36.114z" fill="#FAFAFA"/><path d="M73.07 125.113V98.307H36.957v26.806H73.07zM73.07 48.307H57.14v46.542h15.93V48.307zM52.882 48.307H36.953v46.542h15.93V48.307z" fill="#F5F5F5"/><path d="M42.732 71.366h-6.524a1.015 1.015 0 0 1-1.013-1.012 1.016 1.016 0 0 1 1.013-1.012h6.524a1.016 1.016 0 0 1 1.012 1.012 1.015 1.015 0 0 1-1.012 1.012z" fill="#E0E0E0"/><path d="M33.348 132.087V19.879h-.81v112.208h.81z" fill="#F0F0F0"/><path d="M114.782 69.232h55.452V17.214h-55.452v52.018z" fill="#E6E6E6"/><path d="M113.388 69.232h55.452V17.214h-55.452v52.018z" fill="#F5F5F5"/><path d="M110.147 72.242h60.087v-3.01h-60.087v3.01z" fill="#E6E6E6"/><path d="M108.574 72.242h56.992v-3.01h-56.992v3.01z" fill="#F5F5F5"/><path d="M166.328 66.525V19.918h-50.434v46.607h50.434z" fill="#fff"/><path d="M142.508 66.525V19.918h-2.796v46.607h2.796z" fill="#F5F5F5"/><path d="M116.953 66.525V19.918h-1.057v46.607h1.057zM143.566 66.525V19.918h-1.057v46.607h1.057zM122.234 70.61c-1.02-10.567-1.73-27.714-1.179-33.448a.694.694 0 0 1 .286-.499.707.707 0 0 1 1.121.592c-.097 2.841-.209 9.944.396 22.196.302 6.099.736 10.276.438 11.157l-1.062.001z" fill="#E6E6E6"/><path d="M118.434 46.254c-2.907-3.225-8.835-5.517-14.878-5.506-2.373.005 7.218 3.75 11.21 7.889a44.416 44.416 0 0 1 7.78 11.613c-.771-6.315-1.208-10.774-4.112-13.996z" fill="#E6E6E6"/><path d="M124.19 47.235c2.408-3.358 7.977-5.94 14-6.233 2.364-.114-6.632 4.1-9.989 8.42a39.12 39.12 0 0 0-6.018 11.957c-.176-6.322-.405-10.785 2.007-14.144zM118.304 34.478c-2.458-2.73-7.481-4.672-12.598-4.662-2.009 0 6.112 3.177 9.489 6.678a37.613 37.613 0 0 1 6.589 9.833c-.65-5.343-1.023-9.118-3.48-11.849z" fill="#E6E6E6"/><path d="M123.179 38.514c2.042-2.844 6.756-5.03 11.855-5.278 2.002-.097-5.615 3.471-8.458 7.13a33.092 33.092 0 0 0-5.096 10.13c-.148-5.358-.343-9.14 1.699-11.982zM122.648 82.134a6.001 6.001 0 0 1-5.993-5.658l-.53-9.187h13.045l-.529 9.187a6.004 6.004 0 0 1-5.993 5.658z" fill="#E6E6E6"/><path d="M130.013 69.376h-14.732l-.422-3.82h15.579l-.425 3.82z" fill="#E6E6E6"/><path d="M103.499 153.344c44.069 0 79.793-2.087 79.793-4.66 0-2.574-35.724-4.661-79.793-4.661-44.068 0-79.792 2.087-79.792 4.661 0 2.573 35.724 4.66 79.792 4.66z" fill="#F5F5F5"/><path d="m105.113 144.228-3.436.387-1.267-7.792 3.436-.387 1.267 7.792zM120.497 144.977h-3.432l-.854-7.946h3.431l.855 7.946z" fill="#FFC3BD"/><path d="M116.783 144.576h4.183a.303.303 0 0 1 .292.234l.678 3.05a.502.502 0 0 1-.282.564.51.51 0 0 1-.221.047c-1.346-.024-2.325-.102-4.022-.102-1.043 0-4.188.108-5.628.108-1.412 0-1.629-1.425-1.039-1.553 2.644-.582 4.636-1.376 5.481-2.137a.83.83 0 0 1 .558-.211zM101.621 144.023l3.723-.421a.3.3 0 0 1 .194.043.306.306 0 0 1 .123.156l1.017 2.954a.496.496 0 0 1-.421.664c-1.346.129-3.295.271-4.983.462-1.974.225-2.302.753-4.63.699-1.412-.033-1.766-1.466-1.174-1.578 2.697-.524 3.219-.932 5.362-2.614.224-.192.497-.319.789-.365z" fill="#263238"/><path d="M104.65 44.154c-1.152.951-2.287 1.779-3.46 2.626a60.576 60.576 0 0 1-3.605 2.396 48.68 48.68 0 0 1-3.825 2.16 27.708 27.708 0 0 1-4.223 1.761c-.384.123-.759.224-1.19.332-.423.092-.85.16-1.28.205-.773.084-1.5.12-2.225.154-1.445.067-2.862.065-4.278.055-2.832-.034-5.64-.17-8.46-.42l-.041-2.574c2.769-.356 5.55-.664 8.303-.974 1.376-.15 2.749-.317 4.09-.492.664-.09 1.329-.197 1.941-.31.264-.047.524-.108.781-.184.242-.083.538-.178.812-.288a27.475 27.475 0 0 0 3.419-1.673 60.165 60.165 0 0 0 3.397-2.1c1.12-.746 2.234-1.519 3.338-2.307a140.356 140.356 0 0 0 3.244-2.408l3.262 4.04z" fill="#FFC3BD"/><path d="M108.007 41.22c-.493 3.244-7.323 8.205-7.323 8.205l-4.899-6.08a82.142 82.142 0 0 1 6.816-6.487c2.205-1.802 5.942.833 5.406 4.362z" fill="#407BFF"/><path d="m73.01 51.121-1.949-1.387-.213 4.381a1.804 1.804 0 0 0 1.494-.787l.667-2.207z" fill="#FFC3BD"/><path d="m69.3 48.459-.398 4.294 1.947 1.363.213-4.382-1.761-1.275z" fill="#FFC3BD"/><path opacity=".2" d="m100.41 136.826.653 4.017 3.437-.387-.653-4.017-3.437.387zM119.644 137.037h-3.433l.442 4.096h3.433l-.442-4.096z" fill="#000"/><path d="M119.694 36.964a1.963 1.963 0 0 1 1.475 2.392 80.784 80.784 0 0 0-1.68 9.379 109.647 109.647 0 0 0-.641 7.496c-.284 5.394-.166 9.505-.327 10.898l-18.306-1.274c-1.861-14.569.319-23.866 1.544-27.643a3.26 3.26 0 0 1 2.674-2.242 34.573 34.573 0 0 1 2.43-.233c.31-.02.625-.031.945-.038 2.603.031 5.202.212 7.784.542.49.058.984.13 1.466.207a50.68 50.68 0 0 1 2.636.516z" fill="#346AE1"/><path d="M115.431 27.428c-.664 2.47-1.476 7.023.16 8.817-4.243 2.854-6.952 6.872-7.734 6-.409-.457-.587-5.743-.049-6.543 2.84-.472 2.912-2.549 2.561-4.528l5.062-3.746z" fill="#FFC3BD"/><path d="M115.261 35.223s-6.915 3.06-7.831 9.902c1.905-2.206 6.112-4.605 6.112-4.605l-1.856-.533a18.918 18.918 0 0 1 3.648-.982c-.206-.945.892-2.83.892-2.83l-.965-.952z" fill="#407BFF"/><path d="M109.025 35.111s.922 3.908-1.592 10.013a37.749 37.749 0 0 0-2.031-6.228l1.693.461s-.083-.788-1.453-1.836a8.597 8.597 0 0 1 2.105-2.136l1.278-.274z" fill="#407BFF"/><path opacity=".2" d="m113.367 28.959-2.996 2.215c.089.462.137.93.144 1.399 1.079-.083 2.624-1.149 2.816-2.257.094-.447.106-.906.036-1.357z" fill="#000"/><path d="M106.645 20.276c-1.673.073-2.596 2.957-.898 5.333 1.698 2.376 3.153-5.43.898-5.333z" fill="#263238"/><path d="M114.899 22.815c.198 3.4.487 5.379-1.009 7.316-2.251 2.914-6.602 1.87-7.812-1.402-1.088-2.945-1.23-8.01 1.91-9.75a4.644 4.644 0 0 1 6.911 3.836z" fill="#FFC3BD"/><path d="M115.396 25.428a7.947 7.947 0 0 1-3.684-4.909c-.996.236-5.963 2.521-7.49 0-1.527-2.52.394-4 3.252-2.448-1.264-2.23-.115-3.321 3.856-3.418 3.971-.096 3.437 2.206 3.437 2.206s3.006-1.309 4.069.996c1.231 2.65-1.041 7.172-3.44 7.573z" fill="#263238"/><path d="M114.086 16.249c.036 0 1.504.353 3.194-1.349-.303 1.452-2.928 2.418-2.928 2.418l-.266-1.07zM116.061 21.224c-1.583-.547-3.501 1.799-2.792 4.631.708 2.833 4.926-3.893 2.792-4.63z" fill="#263238"/><path d="M116.956 25.645a3.237 3.237 0 0 1-1.317 2.092c-.931.65-1.769-.093-1.827-1.167-.048-.967.377-2.47 1.463-2.692a1.453 1.453 0 0 1 1.681 1.767z" fill="#FFC3BD"/><path d="M105.373 104.513c.824-10.036 6.873-37.818 6.873-37.818l-12.036-.84s-4.64 27.578-4.996 38.045c-.37 10.882 4.006 35.067 4.006 35.067l5.772-.656s-.447-23.72.381-33.798z" fill="#407BFF"/><path opacity=".5" d="M105.373 104.513c.824-10.036 6.873-37.818 6.873-37.818l-12.036-.84s-4.64 27.578-4.996 38.045c-.37 10.882 4.006 35.067 4.006 35.067l5.772-.656s-.447-23.72.381-33.798z" fill="#fff"/><path opacity=".2" d="M107.712 76.102c-2.426 3.102-2.469 13.997-1.531 22.047.894-5.807 2.303-13.181 3.538-19.329l-2.007-2.718z" fill="#000"/><path d="M106.707 66.305s1.299 29.374 2.748 39.323c1.586 10.893 5.614 34.703 5.614 34.703h6.284s-1.033-22.425-1.863-33.128c-.944-12.191-.97-40.075-.97-40.075l-11.813-.823z" fill="#407BFF"/><path opacity=".5" d="M106.707 66.305s1.299 29.374 2.748 39.323c1.586 10.893 5.614 34.703 5.614 34.703h6.284s-1.033-22.425-1.863-33.128c-.944-12.191-.97-40.075-.97-40.075l-11.813-.823z" fill="#fff"/><path d="M114.313 140.465h7.4v-2.21l-8.272-.144.872 2.354zM98.968 139.616l6.879-.78-.249-2.223-7.704.755 1.074 2.248z" fill="#407BFF"/><path d="M109.894 24.374c.033.275-.083.515-.266.536-.182.022-.352-.183-.384-.458-.033-.275.083-.515.265-.536.183-.022.353.183.385.458zM106.786 24.747c.033.275-.083.515-.266.536-.183.022-.352-.183-.385-.458-.034-.275.083-.515.265-.536.183-.022.352.186.386.458z" fill="#263238"/><path d="M107.791 24.764a9.9 9.9 0 0 1-1.029 2.507 1.59 1.59 0 0 0 1.342.09l-.313-2.597z" fill="#ED847E"/><path d="M110.735 23.255a.168.168 0 0 1-.166-.042 1.288 1.288 0 0 0-1.098-.415.165.165 0 0 1-.19-.13.152.152 0 0 1 .024-.122.16.16 0 0 1 .105-.068 1.611 1.611 0 0 1 1.394.508.165.165 0 0 1 0 .23.157.157 0 0 1-.069.04zM109.544 28.458A2.496 2.496 0 0 0 111.323 27a.083.083 0 0 0-.004-.067.087.087 0 0 0-.117-.041.09.09 0 0 0-.045.05 2.37 2.37 0 0 1-1.656 1.347.094.094 0 0 0-.031.014.089.089 0 0 0-.035.056.078.078 0 0 0 .001.034.074.074 0 0 0 .014.031c.006.01.015.018.025.024a.086.086 0 0 0 .065.011l.004-.001zM105.326 23.837a.157.157 0 0 1-.1 0 .165.165 0 0 1-.101-.207 1.606 1.606 0 0 1 1.051-1.048.167.167 0 0 1 .122.02.166.166 0 0 1 .074.098.167.167 0 0 1-.117.197 1.294 1.294 0 0 0-.823.839.166.166 0 0 1-.106.101z" fill="#263238"/><path d="M115.654 145.176a1.035 1.035 0 0 1-.664-.175.485.485 0 0 1-.137-.194c-.029-.075-.039-.155-.029-.235 0-.048.013-.094.037-.135a.266.266 0 0 1 .102-.095c.382-.196 1.487.485 1.611.563a.077.077 0 0 1 .031.036c.007.015.009.031.007.047a.084.084 0 0 1-.062.066 4.037 4.037 0 0 1-.896.122zm-.51-.71a.252.252 0 0 0-.105.02.105.105 0 0 0-.04.041.106.106 0 0 0-.012.055.336.336 0 0 0 .111.295 1.65 1.65 0 0 0 1.218.061 3.299 3.299 0 0 0-1.176-.472h.004z" fill="#407BFF"/><path d="M116.529 145.057a.076.076 0 0 1-.039-.01c-.355-.192-1.041-.945-.969-1.328a.266.266 0 0 1 .258-.214.457.457 0 0 1 .346.105c.399.326.481 1.316.484 1.358a.078.078 0 0 1-.009.042.079.079 0 0 1-.028.032.083.083 0 0 1-.043.015zm-.693-1.391h-.037c-.105.014-.114.062-.119.083-.043.226.395.794.748 1.062a1.956 1.956 0 0 0-.406-1.079.292.292 0 0 0-.186-.066zM101.342 144.531l-.013.005c-.537.172-1.499.416-1.91.128a.457.457 0 0 1-.196-.375.256.256 0 0 1 .11-.23c.385-.272 1.836.262 2 .325a.081.081 0 0 1 .05.071.085.085 0 0 1-.009.044.076.076 0 0 1-.032.032zm-1.895-.353-.02.012a.097.097 0 0 0-.041.092.299.299 0 0 0 .126.249 2.2 2.2 0 0 0 1.535-.083 3.285 3.285 0 0 0-1.601-.27z" fill="#407BFF"/><path d="M101.34 144.532a.081.081 0 0 1-.063.005c-.432-.138-1.329-.783-1.312-1.175.004-.092.057-.212.276-.26a.602.602 0 0 1 .463.088c.352.337.589.775.678 1.254a.076.076 0 0 1-.003.042.08.08 0 0 1-.022.035c-.005.005-.011.008-.017.011zm-1.155-1.237c-.056.03-.057.065-.058.078-.012.236.608.752 1.057.956a1.906 1.906 0 0 0-.569-.996.437.437 0 0 0-.43-.038z" fill="#407BFF"/><path d="M122.59 41.914c-.088 1.34-.245 2.588-.409 3.877a64.039 64.039 0 0 1-.625 3.826 45.14 45.14 0 0 1-2.11 7.64l-.408.96-.103.24-.026.06-.042.092-.12.236a4.396 4.396 0 0 1-.565.803 5.19 5.19 0 0 1-1.241 1.02c-.376.224-.77.416-1.178.573-1.36.49-2.782.787-4.225.882-2.62.196-5.253.097-7.85-.293l.093-2.575 1.816-.205c.608-.072 1.214-.166 1.816-.249 1.201-.177 2.39-.374 3.524-.637a13.458 13.458 0 0 0 3.036-1.007c.261-.11.489-.284.664-.507.011-.06-.12.2.034-.214l.272-.794a52.063 52.063 0 0 0 1.522-6.939c.196-1.194.362-2.399.524-3.607.161-1.208.294-2.441.421-3.6l5.18.418z" fill="#FFC3BD"/><path d="M122.885 39.426c1.68 2.817.249 11.672.249 11.672l-8.802-1.626s-.476-5.066 1.199-8.963c1.82-4.243 5.319-4.497 7.354-1.083z" fill="#407BFF"/><path d="m101.318 67.22-4.671-21.726a4.4 4.4 0 0 0-4.086-3.363H74.664a4.4 4.4 0 0 1 4.086 3.363l4.671 21.726a4.4 4.4 0 0 0 4.086 3.363h17.896a4.401 4.401 0 0 1-4.085-3.363z" fill="#263238"/><path opacity=".7" d="m101.318 67.22-4.671-21.726a4.4 4.4 0 0 0-4.086-3.363H74.664a4.4 4.4 0 0 1 4.086 3.363l4.671 21.726a4.4 4.4 0 0 0 4.086 3.363h17.896a4.401 4.401 0 0 1-4.085-3.363z" fill="#407BFF"/><path d="M74.663 42.13h17.896a3.76 3.76 0 0 0-3.668 3.364L84.248 95.98a3.761 3.761 0 0 1-3.669 3.363H69.41a3.021 3.021 0 0 1-3.058-3.363l4.644-50.487a3.76 3.76 0 0 1 3.668-3.363z" fill="#407BFF"/><path d="M77.522 95.98a3.022 3.022 0 0 0 3.057 3.364H62.683a3.02 3.02 0 0 1-3.058-3.363h17.897z" fill="#263238"/><path opacity=".7" d="M77.522 95.98a3.022 3.022 0 0 0 3.057 3.364H62.683a3.02 3.02 0 0 1-3.058-3.363h17.897z" fill="#407BFF"/><g opacity=".5" fill="#fff"><path opacity=".5" d="M85.79 47.785H73.68a.66.66 0 0 1-.664-.732.821.821 0 0 1 .799-.733h12.108a.66.66 0 0 1 .665.733.821.821 0 0 1-.798.732zM85.427 51.746h-12.11a.66.66 0 0 1-.664-.732.821.821 0 0 1 .798-.733h12.11a.658.658 0 0 1 .665.733.82.82 0 0 1-.799.732zM82.1 55.709h-9.143a.658.658 0 0 1-.664-.732.822.822 0 0 1 .799-.733h9.142a.658.658 0 0 1 .664.733.822.822 0 0 1-.799.732zM75.698 59.67h-3.1a.66.66 0 0 1-.664-.733.82.82 0 0 1 .798-.732h3.1a.66.66 0 0 1 .665.733.821.821 0 0 1-.8.732zM84.348 63.63H72.235a.66.66 0 0 1-.665-.732.821.821 0 0 1 .8-.732h12.11a.66.66 0 0 1 .664.733.821.821 0 0 1-.796.732zM79.22 67.594h-7.34a.66.66 0 0 1-.665-.733.82.82 0 0 1 .798-.732h7.34a.66.66 0 0 1 .665.732.821.821 0 0 1-.798.733zM83.626 71.555h-12.11a.66.66 0 0 1-.664-.733.822.822 0 0 1 .799-.732h12.11a.66.66 0 0 1 .665.732.82.82 0 0 1-.8.733zM80.298 75.516h-9.141a.659.659 0 0 1-.665-.733.82.82 0 0 1 .8-.732h9.14a.66.66 0 0 1 .665.732.821.821 0 0 1-.799.733zM73.896 79.477h-3.103a.66.66 0 0 1-.664-.733.821.821 0 0 1 .799-.732h3.104a.66.66 0 0 1 .664.732.821.821 0 0 1-.8.733zM82.548 83.44h-12.11a.66.66 0 0 1-.664-.733.821.821 0 0 1 .798-.732h12.11a.658.658 0 0 1 .665.732.821.821 0 0 1-.799.733zM77.415 87.4h-7.34a.658.658 0 0 1-.665-.732.82.82 0 0 1 .8-.732h7.339a.66.66 0 0 1 .664.732.821.821 0 0 1-.798.732zM81.826 91.361h-12.11a.66.66 0 0 1-.665-.732.821.821 0 0 1 .799-.733h12.108a.66.66 0 0 1 .665.733.821.821 0 0 1-.797.732z"/></g><path d="m104.834 59.538-2.629-2.284-1.232 4.205s2.67 1.448 3.595.119l.266-2.04z" fill="#FFC3BD"/><path d="m99.344 57.088-.856 3.524 2.485.847 1.232-4.206-2.861-.165z" fill="#FFC3BD"/></svg>