<svg width="270" height="32" viewBox="0 0 270 32" fill="none" xmlns="http://www.w3.org/2000/svg">
<g clip-path="url(#clip0_301_339)">
<path d="M30.6023 26.7545C30.6023 26.9862 30.5103 27.2084 30.3464 27.3722C30.1826 27.536 29.9604 27.6281 29.7287 27.6281H5.24533C5.01365 27.6281 4.79145 27.536 4.62762 27.3722C4.4638 27.2084 4.37176 26.9862 4.37176 26.7545V16.2716C4.37001 16.1475 4.39473 16.0244 4.44427 15.9106C4.49381 15.7968 4.56704 15.6948 4.65907 15.6116L16.8969 4.59676C17.0574 4.4543 17.2646 4.37563 17.4793 4.37563C17.6939 4.37563 17.9011 4.4543 18.0616 4.59676L26.2616 11.9736L29.5268 9.03451L20.9852 1.34706C20.0219 0.479712 18.7716 -0.000244141 17.4754 -0.000244141C16.1791 -0.000244141 14.9288 0.479712 13.9655 1.34706L8.70857 6.07989V4.32497C8.70857 4.09329 8.61654 3.8711 8.45271 3.70727C8.28888 3.54344 8.06668 3.4514 7.83499 3.4514H5.23368C5.002 3.4514 4.7798 3.54344 4.61598 3.70727C4.45215 3.8711 4.36011 4.09329 4.36011 4.32497V9.98962L1.72386 12.3619C1.17998 12.8558 0.745605 13.4582 0.4487 14.1303C0.151796 14.8023 -0.00105262 15.5291 5.45595e-06 16.2638V26.7467C5.45595e-06 28.1379 0.552636 29.472 1.53633 30.4557C2.52002 31.4394 3.85418 31.992 5.24533 31.992H29.7287C31.1199 31.992 32.454 31.4394 33.4377 30.4557C34.4214 29.472 34.974 28.1379 34.974 26.7467V19.5485L30.6023 23.4815V26.7545Z" fill="#074D8E"/>
<path d="M41.3067 7.84668L39.3421 6.08012C39.182 5.93687 38.9746 5.85767 38.7597 5.85767C38.5449 5.85767 38.3375 5.93687 38.1774 6.08012L24.6506 18.2558L18.0774 12.3388C17.9172 12.1955 17.7099 12.1163 17.495 12.1163C17.2801 12.1163 17.0728 12.1955 16.9126 12.3388L14.9481 14.1054C14.8572 14.1876 14.7847 14.288 14.735 14.4C14.6853 14.512 14.6597 14.6332 14.6597 14.7557C14.6597 14.8782 14.6853 14.9994 14.735 15.1114C14.7847 15.2234 14.8572 15.3238 14.9481 15.406L23.3615 22.9886C23.7136 23.3076 24.1716 23.4842 24.6467 23.4842C25.1217 23.4842 25.5798 23.3076 25.9318 22.9886L41.3067 9.15121C41.3987 9.06926 41.4723 8.96879 41.5227 8.85637C41.5731 8.74396 41.5992 8.62215 41.5992 8.49895C41.5992 8.37575 41.5731 8.25395 41.5227 8.14153C41.4723 8.02912 41.3987 7.92863 41.3067 7.84668Z" fill="#F37F3E"/>
<path d="M51.8243 26.6118V8.72101H54.8186V16.2501H63.2919V8.72101H66.2737V26.6118H63.2919V19.0579H54.8186V26.6118H51.8243ZM74.565 26.9845C73.2232 26.9845 72.0512 26.6822 71.049 26.0776C70.0468 25.4729 69.2682 24.6405 68.7133 23.5803C68.1666 22.5118 67.8933 21.286 67.8933 19.9028C67.8933 18.4947 68.1749 17.2606 68.7381 16.2004C69.3013 15.1402 70.0841 14.3119 71.0863 13.7155C72.0885 13.1192 73.2481 12.821 74.565 12.821C75.9151 12.821 77.0913 13.1233 78.0935 13.728C79.0957 14.3326 79.8743 15.1692 80.4292 16.2376C80.9842 17.2978 81.2617 18.5195 81.2617 19.9028C81.2617 21.2943 80.9801 22.5243 80.4168 23.5927C79.8619 24.6529 79.0833 25.4854 78.0811 26.09C77.0789 26.6864 75.9068 26.9845 74.565 26.9845ZM74.565 24.1767C75.7578 24.1767 76.644 23.7791 77.2238 22.984C77.8036 22.1888 78.0935 21.1617 78.0935 19.9028C78.0935 18.6024 77.7995 17.567 77.2114 16.7967C76.6233 16.0181 75.7412 15.6288 74.565 15.6288C73.7616 15.6288 73.099 15.8111 72.5772 16.1755C72.0636 16.5317 71.6826 17.0328 71.4341 17.6788C71.1857 18.3166 71.0614 19.0579 71.0614 19.9028C71.0614 21.2032 71.3555 22.2426 71.9435 23.0212C72.5399 23.7915 73.4137 24.1767 74.565 24.1767ZM98.995 26.6118V18.4616C98.995 17.5422 98.7673 16.8257 98.3117 16.3122C97.8562 15.7904 97.2391 15.5295 96.4605 15.5295C95.9801 15.5295 95.5494 15.6413 95.1684 15.8649C94.7874 16.0803 94.4851 16.4033 94.2614 16.834C94.0378 17.2564 93.926 17.7617 93.926 18.3497L92.5966 17.567C92.5883 16.6393 92.7954 15.8235 93.2178 15.1195C93.6485 14.4071 94.2283 13.8522 94.9572 13.4546C95.6861 13.057 96.4978 12.8583 97.3923 12.8583C98.8749 12.8583 100.01 13.3055 100.797 14.2001C101.592 15.0863 101.989 16.2542 101.989 17.7037V26.6118H98.995ZM82.856 26.6118V13.1937H85.5024V17.3558H85.8751V26.6118H82.856ZM90.9442 26.6118V18.4988C90.9442 17.5629 90.7164 16.834 90.2608 16.3122C89.8053 15.7904 89.1841 15.5295 88.3972 15.5295C87.6352 15.5295 87.0223 15.7904 86.5584 16.3122C86.1029 16.834 85.8751 17.5132 85.8751 18.3497L84.5333 17.4552C84.5333 16.5855 84.7487 15.8028 85.1794 15.107C85.6101 14.4113 86.1899 13.8646 86.9187 13.467C87.6559 13.0612 88.48 12.8583 89.3912 12.8583C90.3934 12.8583 91.2299 13.0736 91.9008 13.5043C92.58 13.9267 93.0853 14.5065 93.4166 15.2437C93.7562 15.9726 93.926 16.7967 93.926 17.7161V26.6118H90.9442ZM109.994 26.9845C108.635 26.9845 107.442 26.6905 106.415 26.1024C105.388 25.5143 104.585 24.6985 104.005 23.6549C103.434 22.6112 103.148 21.4102 103.148 20.0519C103.148 18.5858 103.429 17.3144 103.993 16.2376C104.556 15.1526 105.339 14.3119 106.341 13.7155C107.343 13.1192 108.503 12.821 109.82 12.821C111.211 12.821 112.391 13.1482 113.36 13.8025C114.338 14.4486 115.063 15.3638 115.535 16.5482C116.007 17.7327 116.185 19.1283 116.069 20.7352H113.1V19.6419C113.091 18.1841 112.835 17.1198 112.329 16.4488C111.824 15.7779 111.029 15.4425 109.944 15.4425C108.718 15.4425 107.807 15.8235 107.211 16.5855C106.614 17.3392 106.316 18.445 106.316 19.9028C106.316 21.2611 106.614 22.3131 107.211 23.0585C107.807 23.804 108.677 24.1767 109.82 24.1767C110.557 24.1767 111.19 24.0152 111.72 23.6921C112.259 23.3608 112.673 22.8846 112.963 22.2634L115.92 23.1579C115.406 24.3672 114.611 25.3073 113.534 25.9782C112.466 26.6491 111.286 26.9845 109.994 26.9845ZM105.372 20.7352V18.474H114.603V20.7352H105.372ZM116.481 26.6118L122.121 8.72101H126.507L132.147 26.6118H129.066L123.947 10.5598H124.618L119.562 26.6118H116.481ZM119.624 22.7355V19.94H129.016V22.7355H119.624ZM138.307 26.997C137.313 26.997 136.493 26.8313 135.847 26.5C135.201 26.1687 134.688 25.7463 134.307 25.2327C133.926 24.7192 133.644 24.1725 133.462 23.5927C133.28 23.0129 133.159 22.4663 133.102 21.9528C133.052 21.4309 133.027 21.0085 133.027 20.6855V13.1937H136.058V19.6543C136.058 20.0684 136.087 20.5364 136.145 21.0582C136.203 21.5717 136.336 22.0687 136.543 22.5491C136.758 23.0212 137.073 23.4105 137.487 23.717C137.91 24.0234 138.477 24.1767 139.189 24.1767C139.57 24.1767 139.947 24.1146 140.32 23.9903C140.693 23.8661 141.028 23.6549 141.326 23.3567C141.633 23.0502 141.877 22.6319 142.059 22.1018C142.242 21.5717 142.333 20.9008 142.333 20.0891L144.109 20.847C144.109 21.99 143.886 23.0254 143.438 23.953C142.999 24.8807 142.349 25.622 141.488 26.177C140.626 26.7236 139.566 26.997 138.307 26.997ZM142.693 26.6118V22.4497H142.333V13.1937H145.339V26.6118H142.693ZM153.539 26.9845C152.155 26.9845 150.975 26.6781 149.998 26.0652C149.02 25.4439 148.271 24.5991 147.749 23.5306C147.235 22.4621 146.975 21.2529 146.966 19.9028C146.975 18.5278 147.244 17.3103 147.774 16.2501C148.312 15.1816 149.074 14.345 150.06 13.7404C151.046 13.1275 152.218 12.821 153.576 12.821C155.1 12.821 156.388 13.2061 157.44 13.9764C158.5 14.7385 159.192 15.7821 159.515 17.1073L156.533 17.9149C156.301 17.1943 155.916 16.6352 155.377 16.2376C154.839 15.8318 154.226 15.6288 153.539 15.6288C152.76 15.6288 152.118 15.8152 151.613 16.1879C151.108 16.5524 150.735 17.0576 150.495 17.7037C150.255 18.3497 150.134 19.0828 150.134 19.9028C150.134 21.1783 150.42 22.2095 150.992 22.9964C151.563 23.7832 152.412 24.1767 153.539 24.1767C154.334 24.1767 154.959 23.9945 155.415 23.63C155.879 23.2656 156.226 22.7396 156.458 22.0521L159.515 22.7355C159.101 24.1021 158.376 25.154 157.34 25.8912C156.305 26.6201 155.038 26.9845 153.539 26.9845ZM168.751 26.6118C167.864 26.7775 166.995 26.8479 166.142 26.823C165.297 26.8065 164.539 26.6532 163.868 26.3633C163.197 26.0652 162.688 25.5972 162.34 24.9594C162.033 24.3796 161.872 23.7874 161.855 23.1827C161.839 22.5781 161.83 21.8948 161.83 21.1328V9.46646H164.812V20.9588C164.812 21.4972 164.816 21.9693 164.825 22.3752C164.841 22.781 164.928 23.1123 165.086 23.3691C165.384 23.8661 165.86 24.1435 166.514 24.2015C167.169 24.2595 167.914 24.2264 168.751 24.1021V26.6118ZM159.395 15.5419V13.1937H168.751V15.5419H159.395ZM170.766 11.1561V8.41041H173.761V11.1561H170.766ZM170.766 26.6118V13.1937H173.761V26.6118H170.766ZM182.29 26.9845C180.949 26.9845 179.777 26.6822 178.774 26.0776C177.772 25.4729 176.994 24.6405 176.439 23.5803C175.892 22.5118 175.619 21.286 175.619 19.9028C175.619 18.4947 175.9 17.2606 176.463 16.2004C177.027 15.1402 177.809 14.3119 178.812 13.7155C179.814 13.1192 180.973 12.821 182.29 12.821C183.64 12.821 184.817 13.1233 185.819 13.728C186.821 14.3326 187.6 15.1692 188.155 16.2376C188.71 17.2978 188.987 18.5195 188.987 19.9028C188.987 21.2943 188.705 22.5243 188.142 23.5927C187.587 24.6529 186.809 25.4854 185.806 26.09C184.804 26.6864 183.632 26.9845 182.29 26.9845ZM182.29 24.1767C183.483 24.1767 184.369 23.7791 184.949 22.984C185.529 22.1888 185.819 21.1617 185.819 19.9028C185.819 18.6024 185.525 17.567 184.937 16.7967C184.349 16.0181 183.467 15.6288 182.29 15.6288C181.487 15.6288 180.824 15.8111 180.302 16.1755C179.789 16.5317 179.408 17.0328 179.159 17.6788C178.911 18.3166 178.787 19.0579 178.787 19.9028C178.787 21.2032 179.081 22.2426 179.669 23.0212C180.265 23.7915 181.139 24.1767 182.29 24.1767ZM199.887 26.6118V20.1512C199.887 19.7288 199.858 19.2608 199.8 18.7473C199.742 18.2338 199.605 17.741 199.39 17.2688C199.183 16.7884 198.868 16.395 198.446 16.0885C198.032 15.7821 197.468 15.6288 196.756 15.6288C196.375 15.6288 195.998 15.691 195.626 15.8152C195.253 15.9395 194.913 16.1548 194.607 16.4613C194.309 16.7594 194.068 17.1736 193.886 17.7037C193.704 18.2255 193.613 18.8964 193.613 19.7164L191.836 18.9585C191.836 17.8155 192.056 16.7802 192.495 15.8525C192.942 14.9248 193.596 14.1876 194.458 13.641C195.319 13.086 196.379 12.8086 197.638 12.8086C198.632 12.8086 199.452 12.9742 200.098 13.3055C200.744 13.6368 201.258 14.0593 201.639 14.5728C202.02 15.0863 202.301 15.633 202.484 16.2128C202.666 16.7926 202.782 17.3434 202.832 17.8652C202.89 18.3787 202.919 18.797 202.919 19.12V26.6118H199.887ZM190.581 26.6118V13.1937H193.253V17.3558H193.613V26.6118H190.581Z" fill="#074D8E"/>
<path d="M205.042 26.6118V8.72101H210.745C210.894 8.72101 211.188 8.72515 211.627 8.73344C212.075 8.74172 212.505 8.77071 212.919 8.82041C214.336 9.00263 215.533 9.50788 216.51 10.3362C217.496 11.1561 218.241 12.2039 218.746 13.4795C219.252 14.755 219.504 16.1507 219.504 17.6664C219.504 19.1822 219.252 20.5778 218.746 21.8534C218.241 23.1289 217.496 24.1808 216.51 25.0091C215.533 25.8291 214.336 26.3302 212.919 26.5124C212.514 26.5621 212.087 26.5911 211.64 26.5994C211.192 26.6077 210.894 26.6118 210.745 26.6118H205.042ZM208.086 23.7915H210.745C210.994 23.7915 211.308 23.7832 211.689 23.7667C212.079 23.7501 212.422 23.7128 212.721 23.6549C213.565 23.4975 214.253 23.1206 214.783 22.5243C215.313 21.9279 215.702 21.2032 215.951 20.35C216.208 19.4969 216.336 18.6024 216.336 17.6664C216.336 16.6973 216.208 15.7862 215.951 14.9331C215.694 14.08 215.297 13.3635 214.758 12.7837C214.228 12.2039 213.549 11.8353 212.721 11.678C212.422 11.6117 212.079 11.5744 211.689 11.5661C211.308 11.5496 210.994 11.5413 210.745 11.5413H208.086V23.7915ZM227.423 26.9845C226.065 26.9845 224.872 26.6905 223.845 26.1024C222.818 25.5143 222.015 24.6985 221.435 23.6549C220.863 22.6112 220.578 21.4102 220.578 20.0519C220.578 18.5858 220.859 17.3144 221.422 16.2376C221.986 15.1526 222.768 14.3119 223.771 13.7155C224.773 13.1192 225.932 12.821 227.249 12.821C228.641 12.821 229.821 13.1482 230.79 13.8025C231.768 14.4486 232.492 15.3638 232.964 16.5482C233.437 17.7327 233.615 19.1283 233.499 20.7352H230.529V19.6419C230.521 18.1841 230.264 17.1198 229.759 16.4488C229.254 15.7779 228.459 15.4425 227.374 15.4425C226.148 15.4425 225.237 15.8235 224.64 16.5855C224.044 17.3392 223.746 18.445 223.746 19.9028C223.746 21.2611 224.044 22.3131 224.64 23.0585C225.237 23.804 226.106 24.1767 227.249 24.1767C227.987 24.1767 228.62 24.0152 229.15 23.6921C229.689 23.3608 230.103 22.8846 230.393 22.2634L233.35 23.1579C232.836 24.3672 232.041 25.3073 230.964 25.9782C229.896 26.6491 228.715 26.9845 227.423 26.9845ZM222.801 20.7352V18.474H232.033V20.7352H222.801ZM238.662 26.9845C237.693 26.9845 236.873 26.8023 236.202 26.4379C235.531 26.0652 235.022 25.5723 234.674 24.9594C234.334 24.3465 234.165 23.6714 234.165 22.9343C234.165 22.2882 234.272 21.7084 234.488 21.1949C234.703 20.6731 235.034 20.2258 235.482 19.8531C235.929 19.4721 236.509 19.1615 237.221 18.9213C237.759 18.7473 238.389 18.5899 239.109 18.4491C239.838 18.3083 240.625 18.1799 241.47 18.064C242.323 17.9397 243.213 17.8072 244.141 17.6664L243.073 18.2752C243.081 17.3475 242.874 16.6642 242.451 16.2252C242.029 15.7862 241.317 15.5667 240.315 15.5667C239.71 15.5667 239.126 15.7075 238.563 15.9892C237.999 16.2708 237.606 16.7553 237.382 17.4428L234.649 16.5855C234.98 15.4508 235.61 14.5397 236.538 13.8522C237.474 13.1647 238.733 12.821 240.315 12.821C241.507 12.821 242.555 13.0156 243.458 13.4049C244.369 13.7942 245.044 14.432 245.483 15.3182C245.723 15.7904 245.868 16.2749 245.918 16.7719C245.968 17.2606 245.992 17.7948 245.992 18.3746V26.6118H243.371V23.7046L243.806 24.1767C243.201 25.1458 242.493 25.8581 241.681 26.3136C240.878 26.7609 239.871 26.9845 238.662 26.9845ZM239.258 24.5991C239.938 24.5991 240.517 24.479 240.998 24.2388C241.478 23.9986 241.859 23.7046 242.141 23.3567C242.431 23.0088 242.625 22.6816 242.725 22.3752C242.882 21.9942 242.969 21.5593 242.986 21.0706C243.011 20.5737 243.023 20.172 243.023 19.8655L243.942 20.1388C243.04 20.2796 242.265 20.4039 241.619 20.5115C240.973 20.6192 240.418 20.7228 239.954 20.8222C239.49 20.9133 239.08 21.0168 238.724 21.1328C238.376 21.257 238.082 21.4019 237.842 21.5676C237.602 21.7333 237.416 21.9238 237.283 22.1391C237.159 22.3545 237.097 22.6071 237.097 22.897C237.097 23.2283 237.179 23.5223 237.345 23.7791C237.511 24.0276 237.751 24.2264 238.066 24.3755C238.389 24.5246 238.786 24.5991 239.258 24.5991ZM248.357 26.6118V8.34829H251.351V26.6118H248.357ZM259.136 26.9845C257.479 26.9845 256.133 26.6118 255.098 25.8664C254.063 25.1209 253.433 24.0731 253.209 22.7231L256.266 22.2509C256.423 22.9136 256.771 23.4354 257.309 23.8164C257.848 24.1974 258.527 24.3879 259.347 24.3879C260.068 24.3879 260.623 24.2471 261.012 23.9655C261.409 23.6756 261.608 23.2821 261.608 22.7852C261.608 22.4787 261.534 22.2344 261.385 22.0521C261.244 21.8616 260.929 21.6794 260.44 21.5055C259.952 21.3315 259.202 21.1121 258.192 20.847C257.065 20.5488 256.171 20.2299 255.508 19.8903C254.845 19.5425 254.369 19.1325 254.079 18.6603C253.789 18.1882 253.644 17.6167 253.644 16.9458C253.644 16.1093 253.864 15.3804 254.303 14.7592C254.742 14.1379 255.355 13.6617 256.142 13.3304C256.928 12.9908 257.856 12.821 258.925 12.821C259.968 12.821 260.892 12.9825 261.695 13.3055C262.507 13.6286 263.161 14.0883 263.658 14.6846C264.155 15.281 264.462 15.9809 264.578 16.7843L261.521 17.331C261.447 16.7594 261.186 16.308 260.739 15.9767C260.3 15.6454 259.711 15.4591 258.974 15.4176C258.27 15.3762 257.703 15.4839 257.272 15.7407C256.841 15.9892 256.626 16.3412 256.626 16.7967C256.626 17.0535 256.713 17.273 256.887 17.4552C257.061 17.6374 257.409 17.8196 257.931 18.0019C258.461 18.1841 259.248 18.4077 260.291 18.6728C261.36 18.9461 262.213 19.2608 262.851 19.617C263.497 19.9649 263.961 20.3832 264.242 20.8718C264.532 21.3605 264.677 21.9528 264.677 22.6485C264.677 23.9986 264.184 25.0588 263.198 25.8291C262.221 26.5994 260.867 26.9845 259.136 26.9845Z" fill="#F37F3E"/>
</g>
<defs>
<clipPath id="clip0_301_339">
<rect width="269.659" height="32" fill="white"/>
</clipPath>
</defs>
</svg>
