<svg width="25" height="17" viewBox="0 0 25 17" fill="none" xmlns="http://www.w3.org/2000/svg">
<path d="M24.7345 2.30547L22.9512 0.70193C22.8058 0.571896 22.6176 0.5 22.4225 0.5C22.2275 0.5 22.0393 0.571896 21.8939 0.70193L9.61533 11.7541L3.64872 6.38306C3.50334 6.25303 3.31513 6.18113 3.12008 6.18113C2.92503 6.18113 2.73682 6.25303 2.59144 6.38306L0.808158 7.9866C0.725728 8.06127 0.659849 8.15237 0.614763 8.25404C0.569677 8.35571 0.546387 8.46571 0.546387 8.57693C0.546387 8.68815 0.569677 8.79813 0.614763 8.8998C0.659849 9.00147 0.725728 9.09257 0.808158 9.16724L8.44527 16.0502C8.76482 16.3397 9.18061 16.5 9.6118 16.5C10.043 16.5 10.4588 16.3397 10.7783 16.0502L24.7345 3.48962C24.818 3.41523 24.8848 3.32403 24.9305 3.22199C24.9763 3.11995 25 3.00938 25 2.89755C25 2.78572 24.9763 2.67516 24.9305 2.57312C24.8848 2.47107 24.818 2.37986 24.7345 2.30547Z" fill="#5DB196"/>
</svg>
