<svg width="32" height="32" viewBox="0 0 32 32" fill="none" xmlns="http://www.w3.org/2000/svg">
<path d="M13.8693 6.26112C15.0459 6.26112 15.9998 5.30726 15.9998 4.13062C15.9998 2.95398 15.0459 2.00012 13.8693 2.00012C12.6926 2.00012 11.7388 2.95398 11.7388 4.13062C11.7388 5.30726 12.6926 6.26112 13.8693 6.26112Z" fill="#535E6B"/>
<path d="M28.7575 22.5299L25.7611 23.279L24.5625 17.6858C24.4892 17.3508 24.304 17.0508 24.0374 16.8353C23.7708 16.6198 23.4387 16.5015 23.0958 16.5001H17.5517L17.1479 13.0001H24V11.0001H16.9171L16.6587 8.76094C16.6362 8.56525 16.5753 8.37593 16.4795 8.20378C16.3838 8.03163 16.2551 7.88002 16.1007 7.75761C15.9464 7.63521 15.7695 7.5444 15.58 7.49038C15.3906 7.43635 15.1924 7.42017 14.9967 7.44275L12.5132 7.72931L13.7562 18.5001H22.6919L24.2392 25.7211L29.2428 24.4702L28.7575 22.5299Z" fill="#535E6B"/>
<path d="M14 27.9999C12.2611 27.9996 10.5764 27.3952 9.23396 26.2899C7.89155 25.1846 6.9749 23.6473 6.64084 21.9408C6.30677 20.2343 6.57604 18.4648 7.40259 16.9349C8.22913 15.405 9.56159 14.2099 11.172 13.554L10.9358 11.5071C7.19644 12.7848 4.5 16.3333 4.5 20.4999C4.5 25.7382 8.76169 29.9999 14 29.9999C15.6348 29.9991 17.2418 29.5765 18.6656 28.7732C20.0894 27.9698 21.2818 26.8127 22.1278 25.4138L21.5 22.4999C20.5 25.4999 17.6625 27.9999 14 27.9999Z" fill="#535E6B"/>
</svg>
