<svg width="25" height="24" viewBox="0 0 25 24" fill="none" xmlns="http://www.w3.org/2000/svg">
<path d="M23.1667 0H1.83333C1.47971 0 1.14057 0.140476 0.890524 0.390524C0.640476 0.640573 0.5 0.979711 0.5 1.33333V22.6667C0.5 23.0203 0.640476 23.3594 0.890524 23.6095C1.14057 23.8595 1.47971 24 1.83333 24H13.32V14.72H10.2027V11.0867H13.32V8.42C13.32 5.32 15.2133 3.63067 17.9867 3.63067C18.9187 3.628 19.852 3.676 20.78 3.77333V7H18.8667C17.3627 7 17.0693 7.71733 17.0693 8.76667V11.08H20.6653L20.1987 14.7133H17.068V24H23.1667C23.5203 24 23.8594 23.8595 24.1095 23.6095C24.3595 23.3594 24.5 23.0203 24.5 22.6667V1.33333C24.5 0.979711 24.3595 0.640573 24.1095 0.390524C23.8594 0.140476 23.5203 0 23.1667 0Z" fill="#535E6B"/>
</svg>
