<svg width="32" height="32" viewBox="0 0 32 32" fill="none" xmlns="http://www.w3.org/2000/svg">
<path fill-rule="evenodd" clip-rule="evenodd" d="M4.39473 24.6633H3.2162V25.1298H4.29861V25.5237H3.2162V26.097H4.44702V26.4913H2.76166V24.2703H4.39473V24.6633ZM5.88503 25.8873L6.10782 26.0971C6.03033 26.1368 5.94437 26.1572 5.85731 26.1564C5.60663 26.1564 5.25385 26.002 5.25385 25.3805C5.25385 24.7589 5.60663 24.6045 5.85731 24.6045C6.10782 24.6045 6.46026 24.7589 6.46026 25.3805C6.46026 25.5886 6.42009 25.7424 6.35833 25.8574L6.12326 25.6379L5.88503 25.8873ZM6.93373 26.4003L6.69185 26.1727C6.82798 25.9992 6.92427 25.7457 6.92427 25.3806C6.92427 24.3386 6.15098 24.2121 5.85714 24.2121C5.56346 24.2121 4.79051 24.3386 4.79051 25.3806C4.79051 26.4234 5.56346 26.5495 5.85714 26.5495C5.98663 26.5495 6.21573 26.5253 6.42607 26.4004L6.68936 26.6518L6.93373 26.4003ZM9.10784 25.7148C9.10784 26.2985 8.75473 26.5494 8.19493 26.5494C7.99107 26.5494 7.68793 26.5001 7.49004 26.2806C7.36952 26.1454 7.32303 25.9645 7.31706 25.7424V24.2703H7.79019V25.711C7.79019 26.0213 7.96949 26.1566 8.18564 26.1566C8.50455 26.1566 8.63404 26.0022 8.63404 25.7331V24.2703H9.10801V25.7148H9.10784ZM10.3504 24.7715H10.3573L10.632 25.6499H10.0652L10.3504 24.7715ZM9.94139 26.0322H10.7613L10.9038 26.4914H11.408L10.626 24.2703H10.0906L9.29892 26.4914H9.7875L9.94139 26.0322ZM12.2337 26.0893H13.3377V26.4913H11.7692V24.2703H12.2337V26.0893ZM15.0968 25.4945V26.4913H14.6336V24.2703H15.0968V25.1114H15.963V24.2703H16.4264V26.4913H15.963V25.4945H15.0968ZM17.3105 25.3805C17.3105 24.7589 17.6637 24.6045 17.9133 24.6045C18.1643 24.6045 18.5171 24.7589 18.5171 25.3805C18.5171 26.002 18.1643 26.1564 17.9133 26.1564C17.6637 26.1564 17.3105 26.002 17.3105 25.3805ZM16.8472 25.3805C16.8472 26.4232 17.6208 26.5494 17.9133 26.5494C18.2083 26.5494 18.9811 26.4232 18.9811 25.3805C18.9811 24.3384 18.2085 24.2119 17.9133 24.2119C17.621 24.2119 16.8472 24.3384 16.8472 25.3805ZM21.1957 25.7148C21.1957 26.2985 20.8426 26.5494 20.2827 26.5494C20.0785 26.5494 19.7762 26.5001 19.5774 26.2806C19.4571 26.1454 19.4104 25.9645 19.405 25.7424V24.2703H19.8774V25.711C19.8774 26.0213 20.0574 26.1566 20.2744 26.1566C20.5928 26.1566 20.7224 26.0022 20.7224 25.7331V24.2703H21.1959V25.7148H21.1957ZM22.0446 25.8071C22.0487 25.9306 22.111 26.166 22.5157 26.166C22.7348 26.166 22.9797 26.1136 22.9797 25.8778C22.9797 25.7053 22.8127 25.6584 22.578 25.6029L22.3396 25.5471C21.9797 25.4638 21.6337 25.3844 21.6337 24.8957C21.6337 24.648 21.7677 24.2119 22.4878 24.2119C23.1688 24.2119 23.3509 24.6568 23.3542 24.9291H22.9083C22.8964 24.8308 22.859 24.5951 22.4538 24.5951C22.278 24.5951 22.0676 24.66 22.0676 24.861C22.0676 25.0352 22.2099 25.0708 22.3017 25.0926L22.8436 25.2256C23.1467 25.3001 23.4246 25.424 23.4246 25.8226C23.4246 26.4914 22.7446 26.5495 22.5496 26.5495C21.7399 26.5495 21.6008 26.0824 21.6008 25.8073H22.0446V25.8071ZM24.2686 26.4913H23.8061V24.2703H24.2686V26.4913ZM26.122 24.2703H26.5545V26.4913H26.0911L25.1855 24.907H25.1777V26.4913H24.7453V24.2703H25.2338L26.1142 25.8169H26.122V24.2703ZM28.107 25.2941H29.034V26.4913H28.7254L28.6791 26.213C28.5617 26.3478 28.3916 26.5492 27.9862 26.5492C27.4514 26.5492 26.9664 26.1659 26.9664 25.3868C26.9664 24.7812 27.3035 24.2084 28.0509 24.2117C28.7324 24.2117 29.0017 24.6533 29.0249 24.9608H28.5616C28.5616 24.874 28.4034 24.5951 28.0762 24.5951C27.7445 24.5951 27.4387 24.8237 27.4387 25.3924C27.4387 25.999 27.7697 26.1564 28.085 26.1564C28.187 26.1564 28.5282 26.1169 28.6232 25.6678H28.107V25.2941ZM3.12689 28.7542C3.12689 28.1326 3.47933 27.9776 3.72952 27.9776C3.98003 27.9776 4.33231 28.1326 4.33231 28.7542C4.33231 29.3754 3.98003 29.5311 3.72952 29.5311C3.47933 29.5311 3.12689 29.3754 3.12689 28.7542ZM2.66305 28.7542C2.66305 29.7959 3.43601 29.9244 3.72968 29.9244C4.02353 29.9244 4.79648 29.7961 4.79648 28.7542C4.79648 27.7123 4.02336 27.5856 3.72968 27.5856C3.43601 27.5856 2.66305 27.7124 2.66305 28.7542ZM6.06748 28.6796V28.0265H6.43553C6.7229 28.0265 6.84375 28.117 6.84375 28.3337C6.84375 28.4326 6.84375 28.6796 6.49712 28.6796H6.06748ZM6.06748 29.0638H6.59905C7.1962 29.0638 7.3071 28.556 7.3071 28.3552C7.3071 27.9195 7.04795 27.6439 6.61764 27.6439H5.6038V29.865H6.06748V29.0638ZM8.56597 28.6796V28.0265H8.93336C9.22106 28.0265 9.34175 28.117 9.34175 28.3337C9.34175 28.4326 9.34175 28.6796 8.99595 28.6796H8.56597ZM8.56597 29.0638H9.09788C9.69453 29.0638 9.80626 28.556 9.80626 28.3552C9.80626 27.9195 9.54678 27.6439 9.1168 27.6439H8.10197V29.865H8.56597V29.0638ZM10.9662 28.7542C10.9662 28.1326 11.3178 27.9776 11.5693 27.9776C11.8187 27.9776 12.1719 28.1326 12.1719 28.7542C12.1719 29.3754 11.8188 29.5311 11.5693 29.5311C11.3178 29.5311 10.9662 29.3754 10.9662 28.7542ZM10.5022 28.7542C10.5022 29.7959 11.275 29.9244 11.5693 29.9244C11.8623 29.9244 12.6353 29.7961 12.6353 28.7542C12.6353 27.7123 11.8623 27.5856 11.5693 27.5856C11.275 27.5856 10.5022 27.7124 10.5022 28.7542ZM13.898 28.6212V28.0265H14.4755C14.7478 28.0265 14.7999 28.2007 14.7999 28.3181C14.7999 28.5379 14.6829 28.6212 14.4415 28.6212H13.898ZM13.4421 29.8651H13.898V28.9959H14.3764C14.7201 28.9959 14.739 29.1129 14.739 29.4161C14.739 29.6443 14.7564 29.7587 14.7875 29.8651H15.3013V29.8052C15.2023 29.7685 15.2023 29.6878 15.2023 29.3643C15.2023 28.9486 15.1034 28.8812 14.9211 28.8005C15.1406 28.7269 15.2638 28.5161 15.2638 28.2722C15.2638 28.08 15.1562 27.6442 14.5654 27.6442H13.4419V29.8651H13.4421ZM16.9921 29.8651H16.5285V28.037H15.8578V27.644H17.6637V28.037H16.9921V29.8651ZM20.153 29.0879C20.153 29.6722 19.8006 29.9244 19.2403 29.9244C19.0372 29.9244 18.7341 29.8728 18.5357 29.6536C18.415 29.5182 18.3687 29.3385 18.3632 29.1161V27.644H18.8357V29.0847C18.8357 29.394 19.0153 29.5311 19.2316 29.5311C19.5501 29.5311 19.6797 29.3754 19.6797 29.1066V27.6439H20.1532V29.0879H20.153ZM22.3977 27.644H22.8315V29.8651H22.3666L21.4604 28.2809H21.4554V29.8651H21.0216V27.644H21.5102L22.3922 29.19H22.3977V27.644ZM24.1402 29.8651H23.6748V27.644H24.1402V29.8651ZM25.951 29.8651H25.4873V28.037H24.8175V27.644H26.6225V28.037H25.951V29.8651ZM28.3761 29.8651H27.9115V29.0266L27.1453 27.644H27.6923L28.153 28.6092L28.5933 27.644H29.1182L28.3761 29.0321V29.8651ZM15.8883 1.13708L0.937012 8.50092V11.96H2.61042V22.3361H29.0536V11.96H31.0631V8.50092L15.8883 1.13708ZM25.8184 19.2111H5.84618V9.72826L15.8883 4.59613L25.8185 9.72826V19.2111H25.8184Z" fill="#535E6B"/>
<path fill-rule="evenodd" clip-rule="evenodd" d="M20.4623 13.0744H11.2026V9.72791H20.4623V13.0744ZM20.4623 17.8742H11.2026V14.5255H20.4623V17.8742Z" fill="#535E6B"/>
</svg>
