<svg width="22" height="20" viewBox="0 0 22 20" fill="none" xmlns="http://www.w3.org/2000/svg">
<path d="M21 9.99999H4V4.41015C3.99649 4.05002 4.09153 3.69579 4.27484 3.38579C4.45815 3.07579 4.72275 2.82182 5.04 2.65136C5.39081 2.46124 5.79058 2.38071 6.18764 2.42016C5.98554 3.03222 5.95683 3.68827 6.10469 4.31565C6.25255 4.94302 6.5712 5.51721 7.02535 5.9746L8.08594 7.03515C8.17877 7.12803 8.28899 7.2017 8.41031 7.25197C8.53162 7.30224 8.66165 7.32811 8.79297 7.32811C8.92429 7.32811 9.05432 7.30224 9.17563 7.25197C9.29695 7.2017 9.40717 7.12803 9.5 7.03515L13.0352 3.49999C13.128 3.40716 13.2017 3.29694 13.252 3.17562C13.3023 3.05431 13.3281 2.92428 13.3281 2.79296C13.3281 2.66164 13.3023 2.53161 13.252 2.4103C13.2017 2.28898 13.128 2.17876 13.0352 2.08593L11.9746 1.02538C11.3843 0.437754 10.6035 0.0803239 9.77301 0.0175201C8.94248 -0.0452837 8.11682 0.190671 7.44489 0.68285C6.83906 0.44624 6.18459 0.361222 5.53841 0.435189C4.89223 0.509157 4.27391 0.73987 3.73722 1.10726C3.20052 1.47466 2.76171 1.96761 2.45895 2.54324C2.15618 3.11887 1.99863 3.75975 2 4.41015V9.99999H1C0.734784 9.99999 0.48043 10.1053 0.292893 10.2929C0.105357 10.4804 0 10.7348 0 11C0 11.2652 0.105357 11.5196 0.292893 11.7071C0.48043 11.8946 0.734784 12 1 12H2V15C2.0019 15.6184 2.19517 16.221 2.55327 16.7251C2.91137 17.2293 3.41674 17.6102 4 17.8157V19C4 19.2652 4.10536 19.5196 4.29289 19.7071C4.48043 19.8946 4.73478 20 5 20C5.26522 20 5.51957 19.8946 5.70711 19.7071C5.89464 19.5196 6 19.2652 6 19V18H16V19C16 19.2652 16.1054 19.5196 16.2929 19.7071C16.4804 19.8946 16.7348 20 17 20C17.2652 20 17.5196 19.8946 17.7071 19.7071C17.8946 19.5196 18 19.2652 18 19V17.8157C18.5833 17.6103 19.0886 17.2293 19.4467 16.7252C19.8048 16.221 19.9981 15.6184 20 15V12H21C21.2652 12 21.5196 11.8946 21.7071 11.7071C21.8946 11.5196 22 11.2652 22 11C22 10.7348 21.8946 10.4804 21.7071 10.2929C21.5196 10.1053 21.2652 9.99999 21 9.99999ZM8.43945 2.43944C8.72098 2.15865 9.10238 2.00097 9.5 2.00097C9.89762 2.00097 10.279 2.15865 10.5605 2.43944L10.9141 2.79296L8.793 4.91405L8.43948 4.56054C8.15854 4.27909 8.00075 3.89767 8.00074 3.5C8.00074 3.10233 8.15852 2.7209 8.43945 2.43944ZM18 15C17.9998 15.2652 17.8944 15.5194 17.7069 15.7069C17.5194 15.8944 17.2652 15.9998 17 16H5C4.73484 15.9998 4.48059 15.8944 4.29309 15.7069C4.10559 15.5194 4.00018 15.2652 4 15V12H18V15Z" fill="#757575"/>
</svg>
