<svg width="18" height="16" viewBox="0 0 18 16" fill="none" xmlns="http://www.w3.org/2000/svg">
<path d="M17.2304 14.6667V3.00001C17.2308 2.8253 17.1764 2.65488 17.0747 2.51281C16.973 2.37075 16.8292 2.26424 16.6637 2.20834M17.2304 14.6667L16.7304 14.6644C16.7304 14.6647 16.7304 14.665 16.7304 14.6653M17.2304 14.6667C17.2298 14.7989 17.1977 14.929 17.1369 15.0464C17.076 15.1638 16.9881 15.265 16.8804 15.3417C16.7414 15.4467 16.5713 15.5025 16.3971 15.5C16.3086 15.512 16.2189 15.512 16.1304 15.5M17.2304 14.6667H16.7304V14.6653M16.7304 14.6653V3.00001V2.99871C16.7306 2.92883 16.7088 2.86066 16.6681 2.80384C16.6276 2.74721 16.5703 2.70471 16.5044 2.68228L16.5056 2.68268L16.6637 2.20834M16.7304 14.6653C16.73 14.7179 16.7172 14.7696 16.693 14.8163C16.6686 14.8632 16.6335 14.9037 16.5904 14.9344L16.5846 14.9385L16.5789 14.9428C16.5286 14.9808 16.4671 15.0009 16.4041 15.0001L16.3668 14.9995L16.3298 15.0045C16.2994 15.0087 16.2687 15.0099 16.2381 15.0083M16.6637 2.20834L16.5037 2.68205L11.5826 1.04167M16.6637 2.20834L11.6637 0.541672M11.6637 0.541672H11.6054C11.5666 0.537773 11.5275 0.537773 11.4887 0.541672H11.2971H11.1887H11.1304M11.6637 0.541672L11.6054 0.716669L11.5802 0.792208L11.5293 0.945047L11.5056 1.01601L11.5375 1.02663L11.556 1.03282L11.5826 1.04167M11.6637 0.541672V1.04167H11.6054H11.5826M11.1304 0.541672L6.39706 2.16667L1.66372 0.541672M11.1304 0.541672V1.04167H11.1887H11.2138M11.1304 0.541672L11.1887 0.711587L11.2927 1.01458L11.2138 1.04167M1.66372 0.541672C1.5384 0.500348 1.40506 0.489376 1.27467 0.509659C1.14428 0.529942 1.02057 0.5809 0.913724 0.658338C0.806022 0.735019 0.718111 0.836224 0.657253 0.953594C0.596394 1.07096 0.564335 1.20113 0.563723 1.33334M1.66372 0.541672L1.50137 1.01458L1.5049 1.01579M1.66372 0.541672L1.50714 1.01652C1.5064 1.01628 1.50565 1.01603 1.5049 1.01579M0.563723 1.33334V13C0.563273 13.1747 0.617739 13.3451 0.719425 13.4872C0.821111 13.6293 0.964873 13.7358 1.13039 13.7917M0.563723 1.33334L1.06372 1.33565C1.06372 1.33535 1.06372 1.33505 1.06372 1.33475M0.563723 1.33334H1.06372V1.33475M1.13039 13.7917L6.13039 15.4583M1.13039 13.7917L1.29039 13.318L6.28539 14.983L6.13039 15.4583M1.13039 13.7917L1.2885 13.3173L1.28964 13.3177C1.22375 13.2953 1.16652 13.2528 1.126 13.1962C1.08533 13.1393 1.06354 13.0712 1.06372 13.0013V13V1.33475M6.13039 15.4583C6.29826 15.5131 6.47918 15.5131 6.64706 15.4583M6.13039 15.4583L6.2885 14.984L6.28657 14.9834C6.35299 15.0047 6.42446 15.0047 6.49088 14.9834L6.48894 14.984L6.64706 15.4583M6.64706 15.4583L11.3971 13.875L16.1304 15.5M6.64706 15.4583L6.49206 14.983L11.2389 13.4007L11.3994 13.3472L11.5594 13.4021L16.2381 15.0083M16.1304 15.5L16.1976 15.0045C16.2111 15.0064 16.2246 15.0076 16.2381 15.0083M16.1304 15.5L16.2927 15.0271L16.2381 15.0083M1.06372 1.33475C1.06411 1.28218 1.07692 1.23043 1.10113 1.18375C1.12547 1.1368 1.16064 1.09632 1.20372 1.06565L1.20373 1.06566L1.20714 1.06319C1.24988 1.03221 1.29937 1.01183 1.35152 1.00372C1.4029 0.995725 1.45543 0.999865 1.5049 1.01579M1.5049 1.01579L6.2347 2.63958L6.39706 2.69532L6.55941 2.63958L11.2138 1.04167M11.2138 1.04167H11.2971H11.4887H11.5138L11.5387 1.03917C11.5443 1.03861 11.5498 1.03861 11.5554 1.03917L11.5803 1.04167H11.5826M5.40597 13.9828L6.06372 14.2015V13.5083V3.6V3.23934L5.72148 3.12554L2.38815 2.01721L1.73039 1.79851V2.49167V12.4V12.7607L2.07263 12.8745L5.40597 13.9828ZM10.7215 12.8745L11.0637 12.7607V12.4V2.49167V1.79851L10.406 2.01721L7.07263 3.12554L6.73039 3.23934V3.6V13.5083V14.2015L7.38815 13.9828L10.7215 12.8745ZM15.406 13.9828L16.0637 14.2015V13.5083V3.6V3.23934L15.7215 3.12554L12.3881 2.01721L11.7304 1.79851V2.49167V12.4V12.7607L12.0726 12.8745L15.406 13.9828Z" stroke="#757575"/>
</svg>
