<svg width="18" height="14" viewBox="0 0 18 14" fill="none" xmlns="http://www.w3.org/2000/svg">
<path d="M14.7301 0.333374H3.06348C2.40044 0.333374 1.76455 0.596766 1.29571 1.06561C0.826869 1.53445 0.563477 2.17033 0.563477 2.83337V11.1667C0.563477 11.8297 0.826869 12.4656 1.29571 12.9345C1.76455 13.4033 2.40044 13.6667 3.06348 13.6667H14.7301C15.3932 13.6667 16.0291 13.4033 16.4979 12.9345C16.9668 12.4656 17.2301 11.8297 17.2301 11.1667V2.83337C17.2301 2.17033 16.9668 1.53445 16.4979 1.06561C16.0291 0.596766 15.3932 0.333374 14.7301 0.333374V0.333374ZM3.06348 12C2.84246 12 2.6305 11.9122 2.47422 11.756C2.31794 11.5997 2.23014 11.3877 2.23014 11.1667V9.15004L4.98014 6.40837C5.13592 6.25568 5.34535 6.17016 5.56348 6.17016C5.7816 6.17016 5.99104 6.25568 6.14681 6.40837L11.7385 12H3.06348ZM15.5635 11.1667C15.5635 11.3877 15.4757 11.5997 15.3194 11.756C15.1631 11.9122 14.9512 12 14.7301 12H14.0885L10.9135 8.80837L11.6468 8.07504C11.8026 7.92235 12.012 7.83683 12.2301 7.83683C12.4483 7.83683 12.6577 7.92235 12.8135 8.07504L15.5635 10.8167V11.1667ZM15.5635 8.46671L13.9968 6.90837C13.5219 6.45207 12.8888 6.19723 12.2301 6.19723C11.5715 6.19723 10.9384 6.45207 10.4635 6.90837L9.73014 7.64171L7.33014 5.24171C6.85519 4.7854 6.22211 4.53056 5.56348 4.53056C4.90485 4.53056 4.27176 4.7854 3.79681 5.24171L2.23014 6.80004V2.83337C2.23014 2.61236 2.31794 2.4004 2.47422 2.24412C2.6305 2.08784 2.84246 2.00004 3.06348 2.00004H14.7301C14.9512 2.00004 15.1631 2.08784 15.3194 2.24412C15.4757 2.4004 15.5635 2.61236 15.5635 2.83337V8.46671Z" fill="#757575"/>
</svg>
