<svg width="48" height="48" viewBox="0 0 48 48" fill="none" xmlns="http://www.w3.org/2000/svg">
<path d="M17.58 38.676C20.2456 40.832 23.5716 42.0057 27 42C29.262 42 31.41 41.499 33.339 40.599L40.206 41.97C40.448 42.0182 40.6981 42.0059 40.9342 41.9343C41.1703 41.8627 41.3851 41.734 41.5595 41.5596C41.734 41.3851 41.8627 41.1703 41.9343 40.9342C42.0059 40.6981 42.0182 40.448 41.97 40.206L40.599 33.342C41.499 31.413 42 29.262 42 27C42.005 23.5727 40.8314 20.2478 38.676 17.583C39.1029 19.804 39.11 22.0854 38.697 24.309C39.326 27.0579 38.9704 29.9404 37.692 32.454C37.5379 32.7554 37.4904 33.1001 37.557 33.432L38.589 38.589L33.429 37.557C33.0981 37.4911 32.7546 37.5386 32.454 37.692C29.94 38.9723 27.0558 39.3281 24.306 38.697C22.0824 39.1105 19.801 39.1034 17.58 38.676ZM6.00001 21C6.00124 17.7541 7.05532 14.5962 9.00401 12.0004C10.9527 9.4045 13.6908 7.51079 16.8074 6.60353C19.9239 5.69627 23.2506 5.82442 26.2881 6.96873C29.3256 8.11304 31.91 10.2118 33.6532 12.9498C35.3964 15.6879 36.2045 18.9176 35.956 22.1539C35.7075 25.3903 34.416 28.4587 32.2752 30.8986C30.1344 33.3385 27.26 35.0181 24.0834 35.6853C20.9068 36.3526 17.5995 35.9714 14.658 34.599L7.79401 35.97C7.55205 36.0182 7.30193 36.0059 7.06583 35.9343C6.82973 35.8627 6.61494 35.734 6.44049 35.5596C6.26603 35.3851 6.1373 35.1703 6.0657 34.9342C5.9941 34.6981 5.98184 34.448 6.03001 34.206L7.40101 27.339C6.4753 25.3542 5.99702 23.1901 6.00001 21ZM21 26.64C20.5027 26.64 20.0258 26.8376 19.6742 27.1892C19.3226 27.5408 19.125 28.0177 19.125 28.515C19.125 29.0123 19.3226 29.4892 19.6742 29.8408C20.0258 30.1925 20.5027 30.39 21 30.39C21.4973 30.39 21.9742 30.1925 22.3258 29.8408C22.6775 29.4892 22.875 29.0123 22.875 28.515C22.875 28.0177 22.6775 27.5408 22.3258 27.1892C21.9742 26.8376 21.4973 26.64 21 26.64ZM21 12.009C17.856 12.009 15.408 14.463 15.441 17.874C15.445 18.2718 15.6068 18.6518 15.891 18.9303C16.1751 19.2088 16.5582 19.363 16.956 19.359C17.3538 19.355 17.7338 19.1932 18.0123 18.9091C18.2908 18.625 18.445 18.2418 18.441 17.844C18.423 16.107 19.521 15.009 21 15.009C22.416 15.009 23.559 16.185 23.559 17.859C23.559 18.465 23.349 18.804 22.479 19.491L21.648 20.136C20.13 21.348 19.5 22.287 19.5 24C19.4993 24.3749 19.639 24.7364 19.8915 25.0134C20.1441 25.2904 20.4912 25.4628 20.8645 25.4967C21.2378 25.5305 21.6102 25.4234 21.9085 25.1964C22.2068 24.9693 22.4092 24.6389 22.476 24.27L22.509 23.802C22.56 23.358 22.809 23.04 23.547 22.458L24.378 21.813C25.917 20.583 26.559 19.617 26.559 17.859C26.559 14.547 24.093 12.009 21 12.009Z" fill="#0D76D6"/>
</svg>
