<svg width="27" height="22" viewBox="0 0 27 22" fill="none" xmlns="http://www.w3.org/2000/svg">
<path d="M26.5002 2.94634C25.5439 3.35884 24.5033 3.65571 23.4314 3.77134C24.5443 3.1102 25.3777 2.06571 25.7752 0.833839C24.7309 1.45505 23.5869 1.89066 22.3939 2.12134C21.8953 1.5883 21.2923 1.16365 20.6224 0.873862C19.9525 0.584073 19.2301 0.435351 18.5002 0.436964C15.5471 0.436964 13.1721 2.83071 13.1721 5.76821C13.1721 6.18071 13.2221 6.59321 13.3033 6.99009C8.88144 6.75884 4.9377 4.64634 2.31582 1.41196C1.83809 2.22795 1.58774 3.15704 1.59082 4.10259C1.59082 5.95259 2.53144 7.58384 3.96582 8.54321C3.12052 8.50992 2.29502 8.27758 1.55645 7.86509V7.93071C1.55645 10.5213 3.3877 12.6682 5.82832 13.162C5.37007 13.281 4.89865 13.3419 4.4252 13.3432C4.07832 13.3432 3.75019 13.3088 3.41894 13.262C4.09394 15.3745 6.05957 16.9088 8.40019 16.9588C6.56894 18.3932 4.2752 19.237 1.78457 19.237C1.3377 19.237 0.925195 19.2213 0.49707 19.1713C2.85957 20.687 5.66269 21.562 8.68144 21.562C18.4814 21.562 23.8439 13.4432 23.8439 6.39634C23.8439 6.16509 23.8439 5.93384 23.8283 5.70259C24.8658 4.94321 25.7752 4.00259 26.5002 2.94634Z" fill="#535E6B"/>
</svg>
