<svg width="27" height="20" viewBox="0 0 27 20" fill="none" xmlns="http://www.w3.org/2000/svg">
<path d="M26.2906 3.60397C26.1388 3.04051 25.842 2.52664 25.4298 2.11353C25.0176 1.70041 24.5044 1.40245 23.9413 1.2493C21.8533 0.675969 13.5 0.666636 13.5 0.666636C13.5 0.666636 5.14795 0.657302 3.05862 1.2053C2.49585 1.3655 1.98371 1.66767 1.57137 2.08282C1.15903 2.49796 0.860332 3.01213 0.703951 3.57597C0.153285 5.66397 0.147951 9.99464 0.147951 9.99464C0.147951 9.99464 0.142618 14.3466 0.689285 16.4133C0.995951 17.556 1.89595 18.4586 3.03995 18.7666C5.14929 19.34 13.48 19.3493 13.48 19.3493C13.48 19.3493 21.8333 19.3586 23.9213 18.812C24.4846 18.6591 24.9983 18.3618 25.4115 17.9495C25.8247 17.5373 26.1231 17.0243 26.2773 16.4613C26.8293 14.3746 26.8333 10.0453 26.8333 10.0453C26.8333 10.0453 26.86 5.69197 26.2906 3.60397ZM10.828 14.0066L10.8346 6.00664L17.7773 10.0133L10.828 14.0066Z" fill="#535E6B"/>
</svg>
